<svg xmlns="http://www.w3.org/2000/svg" xmlns:xlink="http://www.w3.org/1999/xlink" style="width:1676px;height:1023px" width="1676" height="1023" version="1.1" viewBox="0 0 1676 1023"><defs><filter id="f1" width="300%" height="300%" x="-1" y="-1"><feGaussianBlur result="blurOut" stdDeviation="2"/><feColorMatrix in="blurOut" result="blurOut2" type="matrix" values="0 0 0 0 0 0 0 0 0 0 0 0 0 0 0 0 0 0 .4 0"/><feOffset dx="4" dy="4" in="blurOut2" result="blurOut3"/><feBlend in="SourceGraphic" in2="blurOut3" mode="normal"/></filter></defs><g><text x="726" y="23.535" fill="#000" font-family="sans-serif" font-size="14" font-weight="bold" lengthAdjust="spacingAndGlyphs" textLength="222">&quot;Push Notification Enrollment&quot;</text><line style="stroke:#a80036;stroke-width:1;stroke-dasharray:5,5" x1="67" x2="67" y1="85.465" y2="1022.539"/><line style="stroke:#a80036;stroke-width:1;stroke-dasharray:5,5" x1="607" x2="607" y1="85.465" y2="1022.539"/><line style="stroke:#a80036;stroke-width:1;stroke-dasharray:5,5" x1="979" x2="979" y1="85.465" y2="1022.539"/><line style="stroke:#a80036;stroke-width:1;stroke-dasharray:5,5" x1="1281" x2="1281" y1="85.465" y2="1022.539"/><line style="stroke:#a80036;stroke-width:1;stroke-dasharray:5,5" x1="1480" x2="1480" y1="85.465" y2="1022.539"/><line style="stroke:#a80036;stroke-width:1;stroke-dasharray:5,5" x1="1607" x2="1607" y1="85.465" y2="1022.539"/><rect style="stroke:#a80036;stroke-width:1.5" width="114" height="46.977" x="8" y="33.488" fill="#FEFECE" filter="url(#f1)"/><ellipse cx="26" cy="51.488" fill="#CCEBC5" rx="11" ry="11" style="stroke:#a80036;stroke-width:1"/><path d="M21.8799,53.4146 L21.8799,45.5952 L24.3286,45.5952 L24.3286,54.0288 Q24.3286,54.9585 24.8018,55.4856 Q25.2749,56.0127 26.1133,56.0127 Q26.9517,56.0127 27.4248,55.4856 Q27.8979,54.9585 27.8979,54.0288 L27.8979,45.5952 L30.3467,45.5952 L30.3467,53.4146 Q30.3467,55.938 29.3423,57.0835 Q28.3379,58.229 26.1133,58.229 Q23.897,58.229 22.8884,57.0835 Q21.8799,55.938 21.8799,53.4146 Z"/><text x="57" y="54.488" fill="#000" font-family="sans-serif" font-size="14" font-style="italic" lengthAdjust="spacingAndGlyphs" textLength="44">«user»</text><text x="43" y="70.977" fill="#000" font-family="sans-serif" font-size="14" lengthAdjust="spacingAndGlyphs" textLength="72">Client App</text><rect style="stroke:#a80036;stroke-width:1.5" width="176" height="46.977" x="517" y="33.488" fill="#FEFECE" filter="url(#f1)"/><ellipse cx="535" cy="51.488" fill="#B3CDE3" rx="11" ry="11" style="stroke:#a80036;stroke-width:1"/><path d="M537.9731,57.1313 Q537.3921,57.4302 536.7529,57.5796 Q536.1138,57.729 535.4082,57.729 Q532.9014,57.729 531.5815,56.0771 Q530.2617,54.4253 530.2617,51.3042 Q530.2617,48.1748 531.5815,46.5229 Q532.9014,44.8711 535.4082,44.8711 Q536.1138,44.8711 536.7612,45.0205 Q537.4087,45.1699 537.9731,45.4688 L537.9731,48.1914 Q537.3423,47.6104 536.7488,47.3406 Q536.1553,47.0708 535.5244,47.0708 Q534.1797,47.0708 533.4949,48.1375 Q532.8101,49.2041 532.8101,51.3042 Q532.8101,53.396 533.4949,54.4626 Q534.1797,55.5293 535.5244,55.5293 Q536.1553,55.5293 536.7488,55.2595 Q537.3423,54.9897 537.9731,54.4087 Z"/><text x="574.5" y="54.488" fill="#000" font-family="sans-serif" font-size="14" font-style="italic" lengthAdjust="spacingAndGlyphs" textLength="89">«capital one»</text><text x="552" y="70.977" fill="#000" font-family="sans-serif" font-size="14" lengthAdjust="spacingAndGlyphs" textLength="134">Orchestration Layer</text><rect style="stroke:#a80036;stroke-width:1.5" width="162" height="46.977" x="896" y="33.488" fill="#FEFECE" filter="url(#f1)"/><ellipse cx="914" cy="51.488" fill="#B3CDE3" rx="11" ry="11" style="stroke:#a80036;stroke-width:1"/><path d="M916.9731,57.1313 Q916.3921,57.4302 915.7529,57.5796 Q915.1138,57.729 914.4082,57.729 Q911.9014,57.729 910.5815,56.0771 Q909.2617,54.4253 909.2617,51.3042 Q909.2617,48.1748 910.5815,46.5229 Q911.9014,44.8711 914.4082,44.8711 Q915.1138,44.8711 915.7612,45.0205 Q916.4087,45.1699 916.9731,45.4688 L916.9731,48.1914 Q916.3423,47.6104 915.7488,47.3406 Q915.1553,47.0708 914.5244,47.0708 Q913.1797,47.0708 912.4949,48.1375 Q911.8101,49.2041 911.8101,51.3042 Q911.8101,53.396 912.4949,54.4626 Q913.1797,55.5293 914.5244,55.5293 Q915.1553,55.5293 915.7488,55.2595 Q916.3423,54.9897 916.9731,54.4087 Z"/><text x="946.5" y="54.488" fill="#000" font-family="sans-serif" font-size="14" font-style="italic" lengthAdjust="spacingAndGlyphs" textLength="89">«capital one»</text><text x="931" y="70.977" fill="#000" font-family="sans-serif" font-size="14" lengthAdjust="spacingAndGlyphs" textLength="120">Messaging Server</text><rect style="stroke:#a80036;stroke-width:1.5" width="258" height="46.977" x="1150" y="33.488" fill="#FEFECE" filter="url(#f1)"/><ellipse cx="1168" cy="51.488" fill="#B3CDE3" rx="11" ry="11" style="stroke:#a80036;stroke-width:1"/><path d="M1170.9731,57.1313 Q1170.3921,57.4302 1169.7529,57.5796 Q1169.1138,57.729 1168.4082,57.729 Q1165.9014,57.729 1164.5815,56.0771 Q1163.2617,54.4253 1163.2617,51.3042 Q1163.2617,48.1748 1164.5815,46.5229 Q1165.9014,44.8711 1168.4082,44.8711 Q1169.1138,44.8711 1169.7612,45.0205 Q1170.4087,45.1699 1170.9731,45.4688 L1170.9731,48.1914 Q1170.3423,47.6104 1169.7488,47.3406 Q1169.1553,47.0708 1168.5244,47.0708 Q1167.1797,47.0708 1166.4949,48.1375 Q1165.8101,49.2041 1165.8101,51.3042 Q1165.8101,53.396 1166.4949,54.4626 Q1167.1797,55.5293 1168.5244,55.5293 Q1169.1553,55.5293 1169.7488,55.2595 Q1170.3423,54.9897 1170.9731,54.4087 Z"/><text x="1248.5" y="54.488" fill="#000" font-family="sans-serif" font-size="14" font-style="italic" lengthAdjust="spacingAndGlyphs" textLength="89">«capital one»</text><text x="1185" y="70.977" fill="#000" font-family="sans-serif" font-size="14" lengthAdjust="spacingAndGlyphs" textLength="216">Notification Subscription Server</text><rect style="stroke:#a80036;stroke-width:1.5" width="113" height="46.977" x="1422" y="33.488" fill="#FEFECE" filter="url(#f1)"/><ellipse cx="1440" cy="51.488" fill="#FBB4AE" rx="11" ry="11" style="stroke:#a80036;stroke-width:1"/><path d="M1444.1143,57.4883 L1436.3945,57.4883 L1436.3945,45.0952 L1444.1143,45.0952 L1444.1143,47.2534 L1438.8433,47.2534 L1438.8433,49.9263 L1443.6162,49.9263 L1443.6162,52.0845 L1438.8433,52.0845 L1438.8433,55.3301 L1444.1143,55.3301 Z"/><text x="1457" y="54.488" fill="#000" font-family="sans-serif" font-size="14" font-style="italic" lengthAdjust="spacingAndGlyphs" textLength="71">«external»</text><text x="1474.5" y="70.977" fill="#000" font-family="sans-serif" font-size="14" lengthAdjust="spacingAndGlyphs" textLength="36">APNS</text><rect style="stroke:#a80036;stroke-width:1.5" width="113" height="46.977" x="1549" y="33.488" fill="#FEFECE" filter="url(#f1)"/><ellipse cx="1567" cy="51.488" fill="#FBB4AE" rx="11" ry="11" style="stroke:#a80036;stroke-width:1"/><path d="M1571.1143,57.4883 L1563.3945,57.4883 L1563.3945,45.0952 L1571.1143,45.0952 L1571.1143,47.2534 L1565.8433,47.2534 L1565.8433,49.9263 L1570.6162,49.9263 L1570.6162,52.0845 L1565.8433,52.0845 L1565.8433,55.3301 L1571.1143,55.3301 Z"/><text x="1584" y="54.488" fill="#000" font-family="sans-serif" font-size="14" font-style="italic" lengthAdjust="spacingAndGlyphs" textLength="71">«external»</text><text x="1603.5" y="70.977" fill="#000" font-family="sans-serif" font-size="14" lengthAdjust="spacingAndGlyphs" textLength="32">GCM</text><polygon fill="#FBFB77" points="666 100.465 666 125.465 1288 125.465 1288 110.465 1278 100.465 666 100.465" filter="url(#f1)" style="stroke:#a80036;stroke-width:1"/><line style="stroke:#a80036;stroke-width:1" x1="1278" x2="1278" y1="100.465" y2="110.465"/><line style="stroke:#a80036;stroke-width:1" x1="1288" x2="1278" y1="110.465" y2="110.465"/><text x="672" y="118.033" fill="#000" font-family="sans-serif" font-size="13" lengthAdjust="spacingAndGlyphs" textLength="601">This is where you can put useful information like links to documentation or support processes.</text><rect style="stroke:#eee;stroke-width:1" width="1668" height="3" x="3" y="155.431" fill="#EEE" filter="url(#f1)"/><line style="stroke:#000;stroke-width:1" x1="3" x2="1671" y1="155.431" y2="155.431"/><line style="stroke:#000;stroke-width:1" x1="3" x2="1671" y1="158.431" y2="158.431"/><rect style="stroke:#000;stroke-width:2" width="126" height="23.311" x="774" y="144.775" fill="#EEE" filter="url(#f1)"/><text x="780" y="161.344" fill="#000" font-family="sans-serif" font-size="13" font-weight="bold" lengthAdjust="spacingAndGlyphs" textLength="112">Customer Action</text><line style="stroke:#a80036;stroke-width:1" x1="67" x2="109" y1="199.397" y2="199.397"/><line style="stroke:#a80036;stroke-width:1" x1="109" x2="109" y1="199.397" y2="212.397"/><line style="stroke:#a80036;stroke-width:1" x1="68" x2="109" y1="212.397" y2="212.397"/><polygon fill="#A80036" points="78 208.397 68 212.397 78 216.397 74 212.397" style="stroke:#a80036;stroke-width:1"/><text x="74" y="194.654" fill="#000" font-family="sans-serif" font-size="13" lengthAdjust="spacingAndGlyphs" textLength="16">[1]</text><text x="98" y="194.654" fill="#000" font-family="sans-serif" font-size="13" lengthAdjust="spacingAndGlyphs" textLength="502">First time login, or app upgrade, or user toggles notifications on/off in the app.</text><rect style="stroke:#eee;stroke-width:1" width="1668" height="3" x="3" y="241.052" fill="#EEE" filter="url(#f1)"/><line style="stroke:#000;stroke-width:1" x1="3" x2="1671" y1="241.052" y2="241.052"/><line style="stroke:#000;stroke-width:1" x1="3" x2="1671" y1="244.052" y2="244.052"/><rect style="stroke:#000;stroke-width:2" width="145" height="23.311" x="764.5" y="230.397" fill="#EEE" filter="url(#f1)"/><text x="770.5" y="246.965" fill="#000" font-family="sans-serif" font-size="13" font-weight="bold" lengthAdjust="spacingAndGlyphs" textLength="131">Device Registration</text><polygon fill="#A80036" points="1468.5 280.707 1478.5 284.707 1468.5 288.707 1472.5 284.707" style="stroke:#a80036;stroke-width:1"/><line style="stroke:#a80036;stroke-width:1" x1="67" x2="1474.5" y1="284.707" y2="284.707"/><text x="74" y="280.275" fill="#000" font-family="sans-serif" font-size="13" lengthAdjust="spacingAndGlyphs" textLength="16">[2]</text><text x="98" y="280.275" fill="#000" font-family="sans-serif" font-size="13" lengthAdjust="spacingAndGlyphs" textLength="227">If iOS, register device token in APNS</text><polygon fill="#A80036" points="1595.5 310.018 1605.5 314.018 1595.5 318.018 1599.5 314.018" style="stroke:#a80036;stroke-width:1"/><line style="stroke:#a80036;stroke-width:1" x1="67" x2="1601.5" y1="314.018" y2="314.018"/><text x="74" y="309.586" fill="#000" font-family="sans-serif" font-size="13" lengthAdjust="spacingAndGlyphs" textLength="16">[3]</text><text x="98" y="309.586" fill="#000" font-family="sans-serif" font-size="13" lengthAdjust="spacingAndGlyphs" textLength="252">If Android, register device token in GCM</text><rect style="stroke:#eee;stroke-width:1" width="1668" height="3" x="3" y="342.983" fill="#EEE" filter="url(#f1)"/><line style="stroke:#000;stroke-width:1" x1="3" x2="1671" y1="342.983" y2="342.983"/><line style="stroke:#000;stroke-width:1" x1="3" x2="1671" y1="345.983" y2="345.983"/><rect style="stroke:#000;stroke-width:2" width="187" height="23.311" x="743.5" y="332.328" fill="#EEE" filter="url(#f1)"/><text x="749.5" y="348.897" fill="#000" font-family="sans-serif" font-size="13" font-weight="bold" lengthAdjust="spacingAndGlyphs" textLength="173">Update Messaging Server</text><polygon fill="#A80036" points="595 382.639 605 386.639 595 390.639 599 386.639" style="stroke:#a80036;stroke-width:1"/><line style="stroke:#a80036;stroke-width:1" x1="67" x2="601" y1="386.639" y2="386.639"/><text x="74" y="382.207" fill="#000" font-family="sans-serif" font-size="13" lengthAdjust="spacingAndGlyphs" textLength="16">[4]</text><text x="98" y="382.207" fill="#000" font-family="sans-serif" font-size="13" lengthAdjust="spacingAndGlyphs" textLength="128">Update device token</text><polygon fill="#A80036" points="967 411.949 977 415.949 967 419.949 971 415.949" style="stroke:#a80036;stroke-width:1"/><line style="stroke:#a80036;stroke-width:1" x1="607" x2="973" y1="415.949" y2="415.949"/><text x="614" y="411.518" fill="#000" font-family="sans-serif" font-size="13" lengthAdjust="spacingAndGlyphs" textLength="16">[5]</text><text x="638" y="411.518" fill="#000" font-family="sans-serif" font-size="13" lengthAdjust="spacingAndGlyphs" textLength="166">Get existing subscriptions</text><polygon fill="#A80036" points="618 441.26 608 445.26 618 449.26 614 445.26" style="stroke:#a80036;stroke-width:1"/><line style="stroke:#a80036;stroke-width:1" x1="612" x2="978" y1="445.26" y2="445.26"/><text x="624" y="440.828" fill="#000" font-family="sans-serif" font-size="13" lengthAdjust="spacingAndGlyphs" textLength="16">[6]</text><text x="648" y="440.828" fill="#000" font-family="sans-serif" font-size="13" lengthAdjust="spacingAndGlyphs" textLength="128">If success, return all</text><line style="stroke:#a80036;stroke-width:1" x1="607" x2="649" y1="474.881" y2="474.881"/><line style="stroke:#a80036;stroke-width:1" x1="649" x2="649" y1="474.881" y2="487.881"/><line style="stroke:#a80036;stroke-width:1" x1="608" x2="649" y1="487.881" y2="487.881"/><polygon fill="#A80036" points="618 483.881 608 487.881 618 491.881 614 487.881" style="stroke:#a80036;stroke-width:1"/><text x="614" y="470.139" fill="#000" font-family="sans-serif" font-size="13" lengthAdjust="spacingAndGlyphs" textLength="16">[7]</text><text x="638" y="470.139" fill="#000" font-family="sans-serif" font-size="13" lengthAdjust="spacingAndGlyphs" textLength="202">Check if device token is present</text><polygon fill="#A80036" points="967 512.881 977 516.881 967 520.881 971 516.881" style="stroke:#a80036;stroke-width:1"/><line style="stroke:#a80036;stroke-width:1" x1="607" x2="973" y1="516.881" y2="516.881"/><text x="614" y="512.449" fill="#000" font-family="sans-serif" font-size="13" lengthAdjust="spacingAndGlyphs" textLength="16">[8]</text><text x="638" y="512.449" fill="#000" font-family="sans-serif" font-size="13" lengthAdjust="spacingAndGlyphs" textLength="324">If device token is present, stop (skip to next group)</text><polygon fill="#A80036" points="967 547.191 977 551.191 967 555.191 971 551.191" style="stroke:#a80036;stroke-width:1"/><line style="stroke:#a80036;stroke-width:1" x1="607" x2="973" y1="551.191" y2="551.191"/><text x="614" y="546.76" fill="#000" font-family="sans-serif" font-size="13" lengthAdjust="spacingAndGlyphs" textLength="16">[9]</text><text x="638" y="546.76" fill="#000" font-family="sans-serif" font-size="13" lengthAdjust="spacingAndGlyphs" textLength="283">If device token not present, add subscription</text><polygon fill="#FBFB77" points="300 530.191 300 555.191 598 555.191 598 540.191 588 530.191 300 530.191" filter="url(#f1)" style="stroke:#a80036;stroke-width:1"/><line style="stroke:#a80036;stroke-width:1" x1="588" x2="588" y1="530.191" y2="540.191"/><line style="stroke:#a80036;stroke-width:1" x1="598" x2="588" y1="540.191" y2="540.191"/><text x="306" y="547.76" fill="#000" font-family="sans-serif" font-size="13" lengthAdjust="spacingAndGlyphs" textLength="277">{ &quot;device_token&quot; : &quot;APA91bE_YiasYasbda...&quot; }</text><polygon fill="#A80036" points="618 581.502 608 585.502 618 589.502 614 585.502" style="stroke:#a80036;stroke-width:1"/><line style="stroke:#a80036;stroke-width:1" x1="612" x2="978" y1="585.502" y2="585.502"/><text x="624" y="581.07" fill="#000" font-family="sans-serif" font-size="13" lengthAdjust="spacingAndGlyphs" textLength="24">[10]</text><text x="656" y="581.07" fill="#000" font-family="sans-serif" font-size="13" lengthAdjust="spacingAndGlyphs" textLength="142">Return success/failure</text><rect style="stroke:#eee;stroke-width:1" width="1668" height="3" x="3" y="614.468" fill="#EEE" filter="url(#f1)"/><line style="stroke:#000;stroke-width:1" x1="3" x2="1671" y1="614.468" y2="614.468"/><line style="stroke:#000;stroke-width:1" x1="3" x2="1671" y1="617.468" y2="617.468"/><rect style="stroke:#000;stroke-width:2" width="201" height="23.311" x="736.5" y="603.813" fill="#EEE" filter="url(#f1)"/><text x="742.5" y="620.381" fill="#000" font-family="sans-serif" font-size="13" font-weight="bold" lengthAdjust="spacingAndGlyphs" textLength="187">Update Master Subscription</text><polygon fill="#A80036" points="1269 654.123 1279 658.123 1269 662.123 1273 658.123" style="stroke:#a80036;stroke-width:1"/><line style="stroke:#a80036;stroke-width:1" x1="607" x2="1275" y1="658.123" y2="658.123"/><text x="614" y="653.691" fill="#000" font-family="sans-serif" font-size="13" lengthAdjust="spacingAndGlyphs" textLength="24">[11]</text><text x="646" y="653.691" fill="#000" font-family="sans-serif" font-size="13" lengthAdjust="spacingAndGlyphs" textLength="135">Register device token</text><polygon fill="#A80036" points="618 683.434 608 687.434 618 691.434 614 687.434" style="stroke:#a80036;stroke-width:1"/><line style="stroke:#a80036;stroke-width:1" x1="612" x2="1280" y1="687.434" y2="687.434"/><text x="624" y="683.002" fill="#000" font-family="sans-serif" font-size="13" lengthAdjust="spacingAndGlyphs" textLength="24">[12]</text><text x="656" y="683.002" fill="#000" font-family="sans-serif" font-size="13" lengthAdjust="spacingAndGlyphs" textLength="142">Return success/failure</text><line style="stroke:#a80036;stroke-width:1" x1="607" x2="649" y1="717.055" y2="717.055"/><line style="stroke:#a80036;stroke-width:1" x1="649" x2="649" y1="717.055" y2="730.055"/><line style="stroke:#a80036;stroke-width:1" x1="608" x2="649" y1="730.055" y2="730.055"/><polygon fill="#A80036" points="618 726.055 608 730.055 618 734.055 614 730.055" style="stroke:#a80036;stroke-width:1"/><text x="614" y="712.313" fill="#000" font-family="sans-serif" font-size="13" lengthAdjust="spacingAndGlyphs" textLength="24">[13]</text><text x="646" y="712.313" fill="#000" font-family="sans-serif" font-size="13" lengthAdjust="spacingAndGlyphs" textLength="94">Swallow failure</text><polygon fill="#A80036" points="78 755.055 68 759.055 78 763.055 74 759.055" style="stroke:#a80036;stroke-width:1"/><line style="stroke:#a80036;stroke-width:1" x1="72" x2="606" y1="759.055" y2="759.055"/><text x="84" y="754.623" fill="#000" font-family="sans-serif" font-size="13" lengthAdjust="spacingAndGlyphs" textLength="24">[14]</text><text x="116" y="754.623" fill="#000" font-family="sans-serif" font-size="13" lengthAdjust="spacingAndGlyphs" textLength="142">Return success/failure</text><rect style="stroke:#eee;stroke-width:1" width="1668" height="3" x="3" y="788.02" fill="#EEE" filter="url(#f1)"/><line style="stroke:#000;stroke-width:1" x1="3" x2="1671" y1="788.02" y2="788.02"/><line style="stroke:#000;stroke-width:1" x1="3" x2="1671" y1="791.02" y2="791.02"/><rect style="stroke:#000;stroke-width:2" width="171" height="23.311" x="751.5" y="777.365" fill="#EEE" filter="url(#f1)"/><text x="757.5" y="793.934" fill="#000" font-family="sans-serif" font-size="13" font-weight="bold" lengthAdjust="spacingAndGlyphs" textLength="157">Replicate Subscriptions</text><polygon fill="#A80036" points="595 827.676 605 831.676 595 835.676 599 831.676" style="stroke:#a80036;stroke-width:1"/><line style="stroke:#a80036;stroke-width:1" x1="67" x2="601" y1="831.676" y2="831.676"/><text x="74" y="827.244" fill="#000" font-family="sans-serif" font-size="13" lengthAdjust="spacingAndGlyphs" textLength="24">[15]</text><text x="106" y="827.244" fill="#000" font-family="sans-serif" font-size="13" lengthAdjust="spacingAndGlyphs" textLength="134">Update subscriptions</text><polygon fill="#A80036" points="967 856.986 977 860.986 967 864.986 971 860.986" style="stroke:#a80036;stroke-width:1"/><line style="stroke:#a80036;stroke-width:1" x1="607" x2="973" y1="860.986" y2="860.986"/><text x="614" y="856.555" fill="#000" font-family="sans-serif" font-size="13" lengthAdjust="spacingAndGlyphs" textLength="24">[16]</text><text x="646" y="856.555" fill="#000" font-family="sans-serif" font-size="13" lengthAdjust="spacingAndGlyphs" textLength="134">Update subscriptions</text><line style="stroke:#a80036;stroke-width:1" x1="979" x2="1021" y1="890.607" y2="890.607"/><line style="stroke:#a80036;stroke-width:1" x1="1021" x2="1021" y1="890.607" y2="903.607"/><line style="stroke:#a80036;stroke-width:1" x1="980" x2="1021" y1="903.607" y2="903.607"/><polygon fill="#A80036" points="990 899.607 980 903.607 990 907.607 986 903.607" style="stroke:#a80036;stroke-width:1"/><text x="986" y="885.865" fill="#000" font-family="sans-serif" font-size="13" lengthAdjust="spacingAndGlyphs" textLength="24">[17]</text><text x="1018" y="885.865" fill="#000" font-family="sans-serif" font-size="13" lengthAdjust="spacingAndGlyphs" textLength="256">Update subscription in Messaging Server</text><polygon fill="#A80036" points="618 928.607 608 932.607 618 936.607 614 932.607" style="stroke:#a80036;stroke-width:1"/><line style="stroke:#a80036;stroke-width:1" x1="612" x2="978" y1="932.607" y2="932.607"/><text x="624" y="928.176" fill="#000" font-family="sans-serif" font-size="13" lengthAdjust="spacingAndGlyphs" textLength="24">[18]</text><text x="656" y="928.176" fill="#000" font-family="sans-serif" font-size="13" lengthAdjust="spacingAndGlyphs" textLength="142">Return success/failure</text><line style="stroke:#a80036;stroke-width:1" x1="607" x2="649" y1="962.229" y2="962.229"/><line style="stroke:#a80036;stroke-width:1" x1="649" x2="649" y1="962.229" y2="975.229"/><line style="stroke:#a80036;stroke-width:1" x1="608" x2="649" y1="975.229" y2="975.229"/><polygon fill="#A80036" points="618 971.229 608 975.229 618 979.229 614 975.229" style="stroke:#a80036;stroke-width:1"/><text x="614" y="957.486" fill="#000" font-family="sans-serif" font-size="13" lengthAdjust="spacingAndGlyphs" textLength="24">[19]</text><text x="646" y="957.486" fill="#000" font-family="sans-serif" font-size="13" lengthAdjust="spacingAndGlyphs" textLength="94">Swallow failure</text><polygon fill="#A80036" points="78 1000.229 68 1004.229 78 1008.229 74 1004.229" style="stroke:#a80036;stroke-width:1"/><line style="stroke:#a80036;stroke-width:1" x1="72" x2="606" y1="1004.229" y2="1004.229"/><text x="84" y="999.797" fill="#000" font-family="sans-serif" font-size="13" lengthAdjust="spacingAndGlyphs" textLength="24">[20]</text><text x="116" y="999.797" fill="#000" font-family="sans-serif" font-size="13" lengthAdjust="spacingAndGlyphs" textLength="142">Return success/failure</text></g></svg>